<svg width="339" height="341" viewBox="0 0 339 341" fill="none" xmlns="http://www.w3.org/2000/svg">
<path fill-rule="evenodd" clip-rule="evenodd" d="M173.772 50.3082C264.234 51.101 332.999 145.897 332.31 224.543C331.62 303.19 203.789 333.853 171.276 335.119C138.76 336.384 4.90333 298.02 5.59265 219.373C6.28197 140.726 83.3095 49.5153 173.772 50.3082Z" fill="#FF850B"/>
<path d="M173.74 54.1328C83.5249 53.3421 10.0794 143.901 9.41761 219.407C9.24552 239.041 18.0038 257.583 35.4507 274.518C74.3124 312.241 145.654 331.113 169.295 331.322C169.944 331.328 170.553 331.32 171.129 331.297C188.265 330.63 227.801 322.158 262.049 305.413C292.164 290.688 328.136 264.7 328.488 224.51C329.173 146.353 261.725 54.904 173.74 54.1328ZM169.324 338.969C143.964 338.747 71.037 319.719 30.126 280.008C11.1203 261.559 1.57929 241.148 1.77042 219.34C2.11546 179.974 21.3552 136.268 53.2367 102.428C87.0848 66.4998 131.031 46.1089 173.807 46.4838C216.85 46.8611 258.166 67.9131 290.144 105.762C319.291 140.26 336.485 184.677 336.135 224.577C335.829 259.482 311.372 289.811 265.407 312.285C230.16 329.519 189.231 338.248 171.425 338.941C170.769 338.966 170.065 338.976 169.324 338.969" fill="#000072"/>
<g opacity="0.5">
<g opacity="0.5">
<path opacity="0.5" fill-rule="evenodd" clip-rule="evenodd" d="M173.772 50.3088C229.369 50.7961 276.765 86.7968 304.883 132.727C305.167 134.206 305.44 135.691 305.677 137.187C279.974 98.7796 239.598 73.2477 194.697 66.0622C197.57 67.177 199.23 68.4854 199.218 69.8742C199.184 73.7561 186.087 76.7882 169.965 76.6469C153.845 76.5056 140.803 73.2444 140.837 69.3625C140.849 67.9737 142.529 66.6945 145.423 65.6304C100.401 72.0292 59.5875 96.8509 33.2158 134.799L33.3667 133.996C63.8058 86.7535 116.052 49.8029 173.772 50.3088Z" fill="white"/>
</g>
</g>
<path fill-rule="evenodd" clip-rule="evenodd" d="M327.799 248.671C304.77 309.551 200.226 333.993 171.272 335.119C142.616 336.235 35.2622 306.561 10.6534 245.667C12.8705 212.636 29.7338 203.751 60.6315 220.173C73.3377 226.925 86.2622 233.965 96.5972 228.781C155.591 199.184 191.402 205.175 231.386 229.963C250.084 241.555 268.579 224.67 280.134 219.574C316.937 203.338 333.654 215.065 327.799 248.671Z" fill="white"/>
<g opacity="0.300003">
<g opacity="0.300003">
<path opacity="0.300003" fill-rule="evenodd" clip-rule="evenodd" d="M331.735 210.804C332.15 215.423 332.351 220.011 332.312 224.544C332.286 227.442 332.069 230.263 331.71 233.032L331.751 232.204C326.824 284.65 220.816 323.799 163.948 326.536C116.477 328.823 22.1617 276.9 6.64334 229.354C6.6643 230.337 6.70613 231.319 6.74201 232.299C5.9668 228.117 5.55551 223.813 5.59441 219.374C5.62538 215.84 5.81659 212.282 6.14864 208.705L6.40286 207.941C42.9758 261.536 103.46 293.832 168.33 294.4C233.192 294.969 294.229 263.74 331.735 210.804Z" fill="#000072"/>
</g>
</g>
<path fill-rule="evenodd" clip-rule="evenodd" d="M114.071 183.762C109.032 181.462 103.887 177.635 98.6421 172.29C89.4656 172.626 82.041 182.364 81.9356 194.393C81.8278 206.688 89.4036 216.722 98.8566 216.805C108.311 216.888 116.061 206.988 116.169 194.693C116.204 190.728 115.439 187 114.071 183.762Z" fill="#000072"/>
<path d="M257.904 164.06C251.658 172.21 245.532 178.5 239.528 182.931C230.694 189.45 221.185 190.522 220.197 183.248C224.922 182.749 229.86 180.597 235.01 176.797C247.704 167.427 251.7 161.358 257.904 164.06Z" fill="#000072"/>
<path fill-rule="evenodd" clip-rule="evenodd" d="M228.943 184.769C234.021 182.557 239.232 178.821 244.571 173.569C253.741 174.066 260.992 183.932 260.887 195.961C260.779 208.256 253.03 218.156 243.575 218.073C234.121 217.991 226.545 207.956 226.653 195.661C226.687 191.696 227.517 187.982 228.943 184.769" fill="#000072"/>
<path fill-rule="evenodd" clip-rule="evenodd" d="M236.745 190.079C233.969 190.054 231.699 192.433 231.673 195.389C231.647 198.347 233.875 200.764 236.651 200.789C239.427 200.813 241.697 198.435 241.723 195.478C241.749 192.521 239.521 190.103 236.745 190.079Z" fill="white"/>
<path fill-rule="evenodd" clip-rule="evenodd" d="M169.153 199.063C181.394 199.171 191.258 205.876 191.187 214.038C191.115 222.202 181.135 228.733 168.893 228.625C156.652 228.518 146.787 221.813 146.859 213.65C146.931 205.487 156.911 198.956 169.153 199.063Z" fill="#000072"/>
<path d="M189.929 246.924C182.128 246.856 174.607 243.888 168.862 238.651C162.343 244.485 153.404 247.148 144.654 245.678C134.49 243.971 125.919 236.916 122.284 227.268C121.54 225.291 122.538 223.085 124.515 222.34C126.489 221.596 128.695 222.594 129.441 224.571C132.117 231.679 138.432 236.876 145.92 238.134C153.413 239.392 161.076 236.544 165.928 230.703C166.653 229.831 167.728 229.325 168.861 229.323C170.004 229.334 171.07 229.822 171.799 230.69C176.755 236.603 184.291 239.787 191.991 239.209C199.683 238.632 206.671 234.354 210.687 227.767C211.785 225.963 214.142 225.392 215.941 226.493C217.744 227.593 218.315 229.946 217.215 231.749C211.92 240.435 202.706 246.075 192.565 246.837C191.684 246.903 190.805 246.932 189.929 246.924Z" fill="#000072"/>
<path fill-rule="evenodd" clip-rule="evenodd" d="M168.871 233.147C176.774 240.796 184.577 244.088 192.279 243.023C193.744 292.991 143.14 290.512 145.289 241.906C154.709 243.186 162.567 240.268 168.871 233.147Z" fill="#000072"/>
<path d="M149.059 246.022C149.327 258.753 153.752 268.799 161.229 273.316C166.169 276.3 171.78 276.39 176.625 273.561C183.858 269.337 188.08 259.778 188.458 247.022C181.954 246.757 175.443 243.883 169.018 238.441C163.401 243.55 156.772 246.09 149.233 246.024C149.176 246.024 149.118 246.023 149.059 246.022ZM169.001 283.254C164.984 283.219 160.956 282.087 157.276 279.864C146.448 273.322 140.686 259.425 141.469 241.736L141.654 237.552L145.802 238.116C153.958 239.222 160.557 236.767 166.007 230.612L168.656 227.619L171.528 230.398C178.608 237.248 185.231 240.14 191.755 239.234L195.976 238.651L196.1 242.91C196.615 260.489 190.922 274.069 180.48 280.168C176.894 282.261 172.953 283.288 169.001 283.254Z" fill="#000072"/>
<path fill-rule="evenodd" clip-rule="evenodd" d="M169.049 260.775C162.243 260.715 155.821 263.918 151.775 269.389C160.863 282.58 177.178 282.938 186.088 269.579C182.132 264.105 175.807 260.834 169.049 260.775Z" fill="#FF0066"/>
<path d="M156.722 269.52C160.232 273.46 164.672 275.618 169.298 275.615C173.769 275.582 177.913 273.507 181.191 269.714C177.986 266.512 173.6 264.639 169.012 264.598C164.406 264.558 159.984 266.36 156.722 269.52ZM168.993 283.264C161.119 283.195 153.712 278.945 148.624 271.559L147.074 269.31L148.698 267.115C153.457 260.679 161.075 256.879 169.079 256.949C177.018 257.019 184.533 260.902 189.183 267.338L190.739 269.491L189.266 271.701C184.403 278.991 177.146 283.206 169.356 283.264C169.235 283.266 169.113 283.266 168.993 283.264Z" fill="#000072"/>
<path fill-rule="evenodd" clip-rule="evenodd" d="M314.394 144.352C290.196 103.549 260.998 75.811 226.798 61.1434C294.958 -32.6455 324.156 -4.90943 314.394 144.352Z" fill="#FF850B"/>
<path d="M232.681 59.5894C262.696 73.6115 289.085 97.9608 311.292 132.11C316.204 40.1295 303.942 15.5319 292.5 11.3934C283.767 8.23723 266.347 14.2086 232.681 59.5894ZM317.402 156.922L311.105 146.303C287.441 106.4 258.568 78.9313 225.29 64.6586L220.887 62.7702L223.704 58.8942C254.882 15.9928 278.229 -1.90465 295.1 4.19997C316.62 11.9846 323.963 56.598 318.209 144.601L317.402 156.922Z" fill="#000072"/>
<path fill-rule="evenodd" clip-rule="evenodd" d="M220.19 148.464C225.873 146.191 231.575 147.083 232.923 150.456C234.271 153.83 230.757 158.409 225.075 160.683C219.392 162.956 213.691 162.063 212.342 158.689C210.994 155.316 214.508 150.737 220.19 148.464Z" fill="white"/>
<path fill-rule="evenodd" clip-rule="evenodd" d="M121.528 147.375C115.885 145.001 110.169 145.794 108.762 149.144C107.354 152.493 110.787 157.133 116.43 159.505C122.071 161.878 127.787 161.086 129.194 157.736C130.602 154.387 127.169 149.747 121.528 147.375Z" fill="white"/>
<path fill-rule="evenodd" clip-rule="evenodd" d="M101.622 188.894C98.8451 188.87 96.575 191.248 96.5491 194.205C96.5232 197.162 98.7512 199.58 101.528 199.604C104.303 199.628 106.573 197.25 106.599 194.293C106.625 191.336 104.397 188.918 101.622 188.894Z" fill="white"/>
<path fill-rule="evenodd" clip-rule="evenodd" d="M27.4579 143.771C52.366 103.396 82.0458 76.1764 116.497 62.1091C49.9923 -32.86 20.3125 -5.63856 27.4579 143.771Z" fill="#FF850B"/>
<path d="M55.7712 10.5824C54.2344 10.5689 52.8763 10.8058 51.6767 11.2164C40.1643 15.154 27.4729 39.5322 30.7727 131.585C53.5736 97.8311 80.3843 73.948 110.641 60.4527C82.2634 20.7661 65.4799 10.6675 55.7712 10.5824ZM24.2289 156.288L23.6387 143.954C19.4262 55.8626 27.5491 11.3849 49.2026 3.97813C66.1672 -1.8227 89.2051 16.4709 119.629 59.915L122.377 63.8398L117.942 65.6507C84.4174 79.3394 55.0685 106.299 30.7115 145.78L24.2289 156.288Z" fill="#000072"/>
<g opacity="0.649994">
<g opacity="0.649994">
<path opacity="0.649994" fill-rule="evenodd" clip-rule="evenodd" d="M108.035 65.8852C110.826 64.5354 113.651 63.278 116.507 62.1098C75.2891 3.24993 48.2236 -8.65151 35.2952 26.3583C48.9517 1.77988 73.1963 14.9537 108.031 65.8821L108.035 65.8852Z" fill="white"/>
</g>
</g>
<path fill-rule="evenodd" clip-rule="evenodd" d="M46.0852 116.417C58.1838 101.714 71.8607 89.0149 87.1174 78.3236C53.71 11.8184 40.0316 24.5159 46.0852 116.417Z" fill="#000072"/>
<path d="M55.5006 40.2673C55.3333 40.2659 55.2189 40.2872 55.1521 40.3054C54.7417 40.4171 51.0961 41.8826 49.3939 58.731C48.2469 70.0831 48.2294 86.2167 49.3365 106.775C59.3169 95.6777 70.3376 85.7365 82.2205 77.1183C64.6363 42.7683 57.2389 40.2826 55.5006 40.2673ZM42.9047 126.3L42.2711 116.668C37.6646 46.7366 45.1819 35.0923 53.1438 32.9245C62.6652 30.3256 73.8519 43.3943 90.5348 76.6053L92.0188 79.5591L89.3118 81.4554C74.4151 91.8942 60.8648 104.475 49.0375 118.848L42.9047 126.3Z" fill="#000072"/>
<g opacity="0.300003">
<g opacity="0.300003">
<path opacity="0.300003" fill-rule="evenodd" clip-rule="evenodd" d="M51.1789 38.6129C38.6946 47.7827 30.4633 72.816 26.4863 113.71C26.6218 123.111 26.9445 133.129 27.4529 143.771C29.3162 140.468 31.2844 137.205 33.3619 133.995L33.2112 134.799C43.2514 119.768 54.0238 106.757 65.5251 95.7609C58.8012 101.994 52.4581 108.713 46.4948 115.915C46.3778 116.056 46.261 116.196 46.1442 116.34C46.1336 116.352 46.1233 116.365 46.1112 116.381C46.1007 116.393 46.0919 116.405 46.0811 116.417C43.1479 71.8883 44.8481 45.9541 51.1789 38.6129ZM292.507 38.7938C304.83 48.1823 312.621 73.3547 315.879 114.312C315.579 123.709 315.081 133.722 314.388 144.351C312.581 141.016 310.67 137.721 308.649 134.473L308.786 135.279C299.012 120.076 288.47 106.877 277.161 95.683C283.776 102.033 289.999 108.862 295.835 116.167C295.95 116.309 296.064 116.452 296.179 116.597C296.189 116.611 296.199 116.624 296.21 116.639C296.221 116.652 296.23 116.663 296.24 116.676C299.955 72.2061 298.708 46.2446 292.507 38.7938" fill="#000072"/>
</g>
</g>
<g opacity="0.649994">
<g opacity="0.649994">
<path opacity="0.649994" fill-rule="evenodd" clip-rule="evenodd" d="M235.209 65.0652C232.442 63.6667 229.64 62.36 226.804 61.1434C269.048 3.015 296.319 -8.41168 308.632 26.8194C295.408 2.00535 270.935 14.7535 235.213 65.0637L235.209 65.0652Z" fill="white"/>
</g>
</g>
<path fill-rule="evenodd" clip-rule="evenodd" d="M296.244 116.677C284.405 101.762 270.952 88.8253 255.885 77.868C290.453 11.9587 303.909 24.8953 296.244 116.677Z" fill="#000072"/>
<path d="M260.807 76.7492C272.538 85.5758 283.383 95.7097 293.165 106.979C294.632 86.4426 294.897 70.3116 293.949 58.9408C292.543 42.0649 288.925 40.5354 288.516 40.4168C287.763 40.2007 280.742 39.4331 260.807 76.7492ZM299.252 126.615L293.252 119.055C281.681 104.479 268.355 91.6622 253.64 80.9613L250.967 79.0179L252.502 76.0907C269.764 43.1796 281.168 30.3095 290.653 33.0725C298.575 35.3793 305.888 47.1538 300.056 116.995L299.252 126.615Z" fill="#000072"/>
<path d="M55.7708 10.5818C54.234 10.5684 52.8759 10.8053 51.6763 11.2159C40.1638 15.1534 27.4714 39.5323 30.7712 131.585C53.5732 97.8305 80.3838 73.9471 110.641 60.4522C82.263 20.7656 65.4795 10.6669 55.7708 10.5818ZM24.2263 156.287L23.6362 143.953C19.4247 55.8621 27.5487 11.3838 49.2021 3.97759C66.1667 -1.82324 89.2047 16.4703 119.628 59.9144L122.377 63.8392L117.941 65.6501C84.417 79.3388 55.068 106.298 30.7091 145.78L24.2263 156.287Z" fill="#000072"/>
<path d="M173.74 54.1328C83.5249 53.3421 10.0794 143.901 9.41761 219.407C9.24552 239.041 18.0038 257.583 35.4507 274.518C74.3124 312.241 145.654 331.113 169.295 331.322C169.944 331.328 170.553 331.32 171.129 331.297C188.265 330.63 227.801 322.158 262.049 305.413C292.164 290.688 328.136 264.7 328.488 224.51C329.173 146.353 261.725 54.904 173.74 54.1328ZM169.324 338.969C143.964 338.747 71.037 319.719 30.126 280.008C11.1203 261.559 1.57929 241.148 1.77042 219.34C2.11546 179.974 21.3552 136.268 53.2367 102.428C87.0848 66.4998 131.031 46.1089 173.807 46.4838C216.85 46.8611 258.166 67.9131 290.144 105.762C319.291 140.26 336.485 184.677 336.135 224.577C335.829 259.482 311.372 289.811 265.407 312.285C230.16 329.519 189.231 338.248 171.425 338.941C170.769 338.966 170.065 338.976 169.324 338.969" fill="#000072"/>
<g opacity="0.559998">
<g opacity="0.559998">
<path opacity="0.559998" fill-rule="evenodd" clip-rule="evenodd" d="M176.317 205.049C179.652 205.961 182.11 207.589 181.81 208.689C181.51 209.788 178.565 209.941 175.23 209.03C171.895 208.12 169.435 206.491 169.735 205.39C170.035 204.292 172.982 204.138 176.317 205.049Z" fill="white"/>
</g>
</g>
<path d="M88.2557 162.573C94.3593 170.831 100.374 177.228 106.3 181.763C115.018 188.436 124.507 189.674 125.622 182.419C120.906 181.837 116.007 179.598 110.923 175.709C98.3969 166.118 94.5063 159.98 88.2557 162.573Z" fill="#000072"/>
<path d="M232.681 59.5894C262.696 73.6115 289.085 97.9608 311.292 132.11C316.204 40.1295 303.942 15.5319 292.5 11.3934C283.767 8.23723 266.347 14.2086 232.681 59.5894ZM317.402 156.922L311.105 146.303C287.441 106.4 258.568 78.9313 225.29 64.6586L220.887 62.7702L223.704 58.8942C254.882 15.9928 278.229 -1.90465 295.1 4.19997C316.62 11.9846 323.963 56.598 318.209 144.601L317.402 156.922Z" fill="#000072"/>
</svg>
