<svg width="874" height="500" viewBox="0 0 874 500" fill="none" xmlns="http://www.w3.org/2000/svg">
<g opacity="0.1">
<path d="M715.302 160.066C715.302 160.066 717.37 168.957 710.514 178.883C710.514 178.883 721.714 178.541 727.101 185.896C727.101 185.896 725.306 175.205 733.001 167.079C733.001 167.079 722.484 168.961 715.302 160.066Z" fill="white"/>
</g>
<path d="M147.805 297.276C147.805 297.276 150.743 309.912 141 324.019C141 324.019 156.918 323.533 164.574 333.987C164.574 333.987 162.022 318.792 172.958 307.244C172.958 307.244 158.012 309.919 147.805 297.276" fill="white"/>
<g opacity="0.6">
<path d="M681.753 296.242C681.753 296.242 683.821 305.133 676.965 315.059C676.965 315.059 688.166 314.717 693.552 322.072C693.552 322.072 691.757 311.381 699.452 303.255C699.452 303.255 688.935 305.137 681.753 296.242Z" fill="white"/>
</g>
<g opacity="0.300003">
<g opacity="0.300003">
<path opacity="0.300003" d="M698.978 478.015C698.978 487.253 582.3 494.741 438.371 494.741C294.442 494.741 177.764 487.253 177.764 478.015C177.764 468.778 294.442 461.289 438.371 461.289C582.3 461.289 698.978 468.778 698.978 478.015Z" fill="#000072"/>
</g>
</g>
<path d="M657.738 457.093C647.395 469.088 632.223 475.836 616.379 475.836H260.361C244.518 475.836 229.346 469.088 219.003 457.093C213.29 450.461 209.065 443.075 206.225 435.517C206.214 435.517 206.214 435.517 206.214 435.507C197.276 411.792 201.83 386.343 216.088 377.189C240.028 361.798 258.489 380.606 258.489 380.606C260.532 375.805 263.298 371.644 266.394 368.078C278.056 354.603 294.399 349.473 294.399 349.473C285.515 298.499 305.348 252.315 305.348 252.315C305.348 252.315 354.218 289.26 438.37 289.26C522.523 289.26 571.393 252.315 571.393 252.315C571.393 252.315 591.226 298.499 582.342 349.473C582.342 349.473 608.506 357.69 618.252 380.606C618.252 380.606 636.713 361.798 660.653 377.189C679.454 389.27 681.38 429.685 657.738 457.093Z" fill="#B11313"/>
<g opacity="0.300003">
<g opacity="0.300003">
<path opacity="0.300003" d="M272.682 427.6C275.981 395.657 258.488 381.873 258.488 381.873C260.531 377.073 263.298 372.911 266.394 369.346C293.526 401.809 272.682 427.6 272.682 427.6Z" fill="#000072"/>
</g>
</g>
<g opacity="0.300003">
<g opacity="0.300003">
<path opacity="0.300003" d="M604.154 427.6C600.856 395.657 618.348 381.873 618.348 381.873C616.305 377.073 613.539 372.911 610.443 369.346C583.31 401.809 604.154 427.6 604.154 427.6Z" fill="#000072"/>
</g>
</g>
<g opacity="0.300003">
<g opacity="0.300003">
<path opacity="0.300003" d="M606.924 454.413C604.389 453.782 601.776 453.564 599.179 453.85C595.479 454.256 589.113 454.886 579.776 455.586C565.722 456.64 553.449 446.076 552.489 432.011C552.077 425.968 552.981 421.277 553.309 419.825C549.639 435.519 542.862 449.977 538.73 457.907C517.755 458.781 491.188 459.493 458.336 459.702C456.564 396.201 493.44 336.658 493.44 336.658C436.938 381.873 383.391 336.658 383.391 336.658C420.674 402.857 418.733 456.944 418.733 456.944L425.012 459.737C389.136 459.586 360.444 458.839 338.1 457.907C333.968 449.978 327.191 435.519 323.521 419.825C323.862 421.335 324.826 426.35 324.284 432.745C323.118 446.509 310.834 456.62 297.064 455.587C287.721 454.887 281.353 454.256 277.651 453.85C275.054 453.564 272.441 453.782 269.906 454.413C229.397 464.502 206.949 437.673 206.227 436.785C209.067 444.342 213.292 451.729 219.005 458.36C229.348 470.355 244.52 477.104 260.363 477.104H438.415H616.467C632.31 477.104 647.483 470.355 657.825 458.36C663.538 451.729 667.763 444.342 670.603 436.785C669.881 437.673 647.433 464.502 606.924 454.413Z" fill="#000072"/>
</g>
</g>
<g opacity="0.300003">
<g opacity="0.300003">
<path opacity="0.300003" d="M323.524 419.826C323.454 419.52 323.41 419.353 323.41 419.353C323.447 419.511 323.487 419.668 323.524 419.826Z" fill="#000072"/>
</g>
</g>
<g opacity="0.300003">
<g opacity="0.300003">
<path opacity="0.300003" d="M553.311 419.826C553.348 419.668 553.388 419.511 553.424 419.353C553.424 419.353 553.38 419.52 553.311 419.826Z" fill="#000072"/>
</g>
</g>
<path d="M438.336 473.413H616.389C631.325 473.413 645.382 467.048 654.956 455.95C667.324 441.612 673.423 421.758 670.874 404.134C669.38 393.816 664.933 385.587 658.671 381.561C637.498 367.945 621.557 383.784 620.889 384.464C620.027 385.343 618.784 385.736 617.572 385.504C616.361 385.276 615.345 384.456 614.863 383.324C605.886 362.211 581.488 354.343 581.243 354.266C579.477 353.712 578.395 351.935 578.713 350.111C585.779 309.603 574.108 271.703 569.639 259.285C556.259 268.036 510.217 294.221 438.379 294.221C366.541 294.221 320.498 268.036 307.119 259.285C302.65 271.703 290.978 309.603 298.044 350.111C298.362 351.935 297.28 353.712 295.514 354.266C295.273 354.343 270.836 362.295 261.894 383.324C261.412 384.456 260.396 385.276 259.186 385.504C257.976 385.735 256.73 385.343 255.868 384.464C255.202 383.795 239.124 368.031 218.086 381.561C211.825 385.587 207.377 393.816 205.884 404.134C203.335 421.758 209.433 441.613 221.801 455.95C231.375 467.048 245.433 473.413 260.369 473.413H438.336ZM616.389 480.793H260.369C243.286 480.793 227.193 473.495 216.216 460.771C202.493 444.863 195.736 422.756 198.583 403.077C200.408 390.459 205.918 380.613 214.097 375.353C233.563 362.837 249.987 371.011 257.204 376.103C266.359 359.334 283.345 351.11 290.277 348.333C282.557 298.116 301.154 254.014 301.966 252.125C302.413 251.083 303.315 250.305 304.41 250.015C305.508 249.724 306.675 249.954 307.579 250.638C308.057 250.997 356.586 286.841 438.379 286.841C520.171 286.841 568.701 250.997 569.181 250.636C570.086 249.954 571.256 249.725 572.349 250.016C573.444 250.307 574.345 251.084 574.792 252.125C575.603 254.014 594.2 298.116 586.48 348.333C593.413 351.11 610.399 359.334 619.553 376.103C626.769 371.011 643.193 362.833 662.66 375.353C670.839 380.613 676.349 390.458 678.175 403.077C681.022 422.755 674.265 444.863 660.541 460.771C649.565 473.495 633.471 480.793 616.389 480.793" fill="#000072"/>
<path d="M260.635 378.869C261.039 379.145 261.228 379.297 261.507 379.503C261.771 379.699 261.984 379.886 262.226 380.08C262.705 380.467 263.11 380.875 263.544 381.278C263.988 381.673 264.354 382.11 264.753 382.532C265.155 382.952 265.532 383.385 265.886 383.832C267.356 385.595 268.591 387.494 269.693 389.455C271.902 393.378 273.369 397.607 274.389 401.865C275.383 406.141 275.751 410.482 275.751 414.769C275.759 416.911 275.52 419.047 275.374 421.158C275.056 423.267 274.709 425.358 274.268 427.42C274.183 427.813 273.796 428.064 273.403 427.98C273.104 427.916 272.888 427.677 272.838 427.394L272.83 427.342C272.468 425.271 272.243 423.229 271.971 421.206L271.443 418.195C271.249 417.199 271.177 416.194 270.912 415.217C270.417 413.261 270.151 411.284 269.526 409.395C269.254 408.444 269.04 407.48 268.743 406.545L267.792 403.768C266.48 400.103 264.877 396.599 262.945 393.359C262.443 392.565 261.972 391.744 261.425 390.992L260.635 389.837L259.788 388.741C259.251 387.985 258.628 387.32 258.045 386.638C257.744 386.314 257.446 385.963 257.143 385.674C256.997 385.526 256.841 385.351 256.703 385.222C256.581 385.103 256.38 384.915 256.366 384.888L255.57 383.288C254.715 381.571 255.414 379.485 257.131 378.63C258.294 378.051 259.63 378.188 260.635 378.869Z" fill="#000072"/>
<path d="M620.305 384.888C620.291 384.915 620.09 385.103 619.968 385.222C619.83 385.351 619.674 385.526 619.529 385.675C619.225 385.963 618.927 386.314 618.626 386.638C618.043 387.321 617.42 387.985 616.883 388.742L616.036 389.838L615.246 390.992C614.699 391.744 614.229 392.566 613.726 393.36C611.794 396.599 610.191 400.104 608.879 403.768L607.928 406.545C607.631 407.481 607.418 408.444 607.145 409.395C606.52 411.284 606.255 413.261 605.759 415.217C605.494 416.194 605.422 417.199 605.229 418.195L604.7 421.206C604.429 423.23 604.203 425.271 603.842 427.342L603.833 427.393C603.764 427.789 603.387 428.054 602.991 427.985C602.69 427.933 602.464 427.702 602.404 427.42C601.962 425.358 601.615 423.267 601.297 421.158C601.151 419.047 600.912 416.911 600.92 414.769C600.921 410.483 601.288 406.141 602.282 401.865C603.303 397.607 604.77 393.378 606.978 389.455C608.08 387.494 609.316 385.595 610.786 383.832C611.139 383.386 611.516 382.952 611.918 382.532C612.317 382.11 612.683 381.673 613.127 381.278C613.561 380.875 613.966 380.468 614.445 380.08C614.687 379.886 614.9 379.7 615.165 379.503C615.443 379.297 615.632 379.145 616.037 378.869C617.622 377.788 619.782 378.198 620.862 379.784C621.594 380.858 621.642 382.197 621.104 383.284L620.305 384.888Z" fill="#000072"/>
<path d="M298.072 350.307L298.373 353.256L298.748 356.553C298.881 357.677 299.057 358.804 299.154 359.988C299.262 361.168 299.326 362.391 299.266 363.712L299.266 363.718C299.257 363.925 299.081 364.086 298.873 364.077C298.798 364.073 298.73 364.049 298.673 364.008C297.59 363.245 296.657 362.369 295.85 361.415C295.024 360.467 294.347 359.433 293.688 358.373C293.043 357.306 292.456 356.197 291.945 355.035C291.704 354.449 291.455 353.859 291.262 353.238C291.157 352.931 291.063 352.614 290.979 352.289C290.888 351.938 290.826 351.681 290.747 351.183C290.427 349.17 291.8 347.277 293.813 346.958C295.826 346.637 297.718 348.01 298.037 350.024C298.048 350.089 298.056 350.153 298.063 350.217L298.072 350.307Z" fill="#000072"/>
<path d="M586.096 351.184C586.017 351.681 585.956 351.938 585.865 352.289C585.781 352.614 585.686 352.931 585.582 353.238C585.389 353.86 585.139 354.449 584.899 355.035C584.388 356.197 583.801 357.306 583.156 358.373C582.496 359.433 581.82 360.467 580.994 361.415C580.187 362.37 579.254 363.245 578.17 364.008C578.001 364.128 577.766 364.087 577.646 363.917C577.603 363.857 577.581 363.787 577.578 363.717L577.578 363.712C577.518 362.391 577.582 361.168 577.69 359.988C577.787 358.804 577.963 357.677 578.095 356.553L578.471 353.256L578.772 350.307L578.779 350.229C578.986 348.201 580.798 346.724 582.826 346.931C584.854 347.138 586.33 348.95 586.123 350.978C586.116 351.043 586.106 351.12 586.096 351.184Z" fill="#000072"/>
<path d="M315.97 386.881C315.97 386.881 299.085 373.781 294.411 350.745C294.411 350.745 284.696 345.834 277.982 359.123C277.982 359.123 285.727 399.692 323.414 419.353C323.414 419.353 317.969 398.467 315.97 386.881" fill="#0096F2"/>
<path d="M281.882 359.651C283.403 365.846 291.594 394.135 317.662 411.65C316.012 404.955 313.826 395.703 312.573 388.854C308.662 385.465 295.935 373.2 291.259 353.591C289.136 353.225 285.313 353.652 281.882 359.651ZM323.411 423.042C322.829 423.042 322.244 422.904 321.706 422.625C282.883 402.371 274.687 361.543 274.356 359.815C274.204 359.015 274.32 358.187 274.688 357.459C278.882 349.158 284.365 346.805 288.227 346.293C292.5 345.723 295.719 347.273 296.072 347.452C297.079 347.962 297.799 348.904 298.023 350.011C302.351 371.344 318.075 383.845 318.233 383.969C318.955 384.533 319.447 385.35 319.602 386.254C321.551 397.552 326.927 418.214 326.981 418.421C327.349 419.833 326.85 421.329 325.71 422.239C325.043 422.77 324.23 423.042 323.411 423.042" fill="#000072"/>
<path d="M560.874 386.881C560.874 386.881 577.759 373.781 582.433 350.745C582.433 350.745 592.148 345.834 598.862 359.123C598.862 359.123 591.117 399.692 553.43 419.353C553.43 419.353 558.876 398.467 560.874 386.881" fill="#0096F2"/>
<path d="M564.266 388.854C563.012 395.704 560.826 404.955 559.176 411.651C585.243 394.136 593.434 365.851 594.957 359.65C592.879 356.008 590.421 353.977 587.642 353.609C586.862 353.505 586.148 353.549 585.567 353.64C580.882 373.222 568.173 385.467 564.266 388.854ZM553.427 423.042C552.609 423.042 551.796 422.77 551.129 422.239C549.988 421.329 549.49 419.833 549.858 418.421C549.912 418.214 555.287 397.552 557.236 386.254C557.392 385.347 557.88 384.533 558.605 383.969C558.763 383.845 574.487 371.344 578.816 350.011C579.04 348.904 579.759 347.962 580.767 347.452C581.119 347.274 584.337 345.722 588.611 346.293C592.473 346.805 597.957 349.158 602.15 357.459C602.518 358.187 602.635 359.015 602.482 359.815C602.152 361.543 593.956 402.371 555.133 422.625C554.595 422.904 554.01 423.042 553.427 423.042" fill="#000072"/>
<path d="M366.842 292.625C366.842 292.625 373.182 310.603 371.357 336.832L392.246 355.014C392.246 355.014 397.706 323.325 388.408 297.007L366.842 292.625Z" fill="#0096F2"/>
<path d="M375.157 335.245L389.441 347.677C390.408 337.565 391.233 317.739 385.595 300.199L372.029 297.442C373.782 304.74 376.122 318.166 375.157 335.245ZM392.251 358.704C391.374 358.704 390.511 358.391 389.829 357.797L368.94 339.615C368.068 338.856 367.602 337.73 367.682 336.576C369.425 311.511 363.426 294.022 363.366 293.848C362.927 292.595 363.194 291.201 364.067 290.201C364.939 289.202 366.282 288.751 367.58 289.008L389.145 293.39C390.416 293.647 391.457 294.554 391.889 295.776C401.399 322.693 396.114 354.308 395.885 355.641C395.659 356.953 394.742 358.043 393.487 358.489C393.084 358.633 392.666 358.704 392.251 358.704" fill="#000072"/>
<path d="M509.997 292.625C509.997 292.625 503.657 310.603 505.481 336.832L484.592 355.014C484.592 355.014 479.133 323.325 488.431 297.007L509.997 292.625Z" fill="#0096F2"/>
<path d="M491.242 300.199C485.594 317.771 486.422 337.58 487.393 347.681L501.68 335.245C500.716 318.166 503.056 304.741 504.809 297.443L491.242 300.199ZM484.587 358.704C484.172 358.704 483.754 358.633 483.351 358.49C482.095 358.043 481.179 356.954 480.953 355.641C480.723 354.308 475.439 322.694 484.949 295.777C485.381 294.554 486.422 293.648 487.692 293.39L509.258 289.009C510.56 288.74 511.903 289.201 512.775 290.203C513.646 291.205 513.912 292.598 513.471 293.85C513.375 294.127 507.419 311.587 509.156 336.577C509.236 337.73 508.77 338.856 507.897 339.616L487.009 357.798C486.327 358.391 485.464 358.704 484.587 358.704" fill="#000072"/>
<path d="M417.587 465.577C412.331 491.399 382.368 503.213 361.311 487.386C344.83 475.007 326.731 446.694 315.548 384.609C314.484 378.659 313.473 372.39 312.537 365.801L319.655 359.053L366.844 314.285C366.844 314.285 413.331 386.28 418.481 441.468V441.479C419.289 450.026 419.098 458.169 417.587 465.577Z" fill="#B11313"/>
<g opacity="0.300003">
<g opacity="0.300003">
<path opacity="0.300003" d="M417.588 465.577C412.332 491.399 382.369 503.213 361.312 487.386C344.831 475.007 326.732 446.695 315.549 384.609C299.812 375.125 294.407 350.74 294.407 350.74C287.619 318.361 295.45 288.516 295.45 288.516C293.96 327.927 309.597 346.727 316.046 352.762C317.844 354.444 319.1 356.612 319.647 359.012C319.65 359.026 319.653 359.039 319.656 359.053C331.179 410.058 350.481 472.197 378.485 476.646C405.522 480.936 417.173 445.705 418.482 441.479C419.29 450.026 419.099 458.169 417.588 465.577Z" fill="#000072"/>
</g>
</g>
<path d="M370.885 310.842C376.258 316.696 380.507 323.226 384.359 329.972C386.271 333.353 388.014 336.821 389.747 340.295C391.48 343.769 393.177 347.262 394.83 350.777C401.453 364.829 407.483 379.199 412.492 394.005C417.505 408.794 421.542 424.074 423.014 439.983C423.722 447.925 423.766 456.052 422.417 464.187C422.124 466.184 421.698 468.328 421.041 470.391C420.445 472.471 419.6 474.476 418.685 476.442C416.775 480.341 414.231 483.937 411.196 487.047C405.064 493.206 396.962 497.359 388.36 498.58C384.07 499.251 379.664 499.105 375.389 498.347C371.116 497.535 366.99 496 363.219 493.887C361.374 492.796 359.516 491.595 357.913 490.273L355.508 488.3C354.696 487.652 353.999 486.899 353.241 486.202C352.509 485.483 351.729 484.801 351.039 484.048L348.982 481.782C347.562 480.304 346.384 478.662 345.11 477.086C340.186 470.662 336.258 463.677 332.811 456.555C329.307 449.439 326.628 442.038 324.033 434.641C321.626 427.187 319.432 419.682 317.628 412.101C316.737 408.31 315.779 404.531 315.051 400.711C314.302 396.896 313.404 393.106 312.859 389.259C311.653 381.583 311.087 373.802 311.75 365.91C311.788 365.463 312.18 365.132 312.626 365.17C312.937 365.196 313.192 365.395 313.305 365.664L313.315 365.687C314.848 369.355 316.008 373.056 317.009 376.776C317.994 380.499 319.015 384.199 319.789 387.944C320.529 391.698 321.396 395.413 322.212 399.143C322.987 402.885 323.986 406.562 324.918 410.257C326.803 417.642 329.058 424.903 331.503 432.077C334.125 439.17 336.819 446.252 340.245 452.917C343.6 459.607 347.427 466.028 351.925 471.811C353.086 473.217 354.164 474.713 355.434 476L357.275 478C357.89 478.664 358.575 479.241 359.22 479.868C359.885 480.467 360.502 481.135 361.205 481.679L363.282 483.355C364.658 484.477 366.064 485.345 367.532 486.213C370.497 487.835 373.692 488.992 376.994 489.595C380.299 490.144 383.7 490.247 387.022 489.691C393.69 488.705 399.962 485.388 404.674 480.615C407.022 478.215 408.992 475.449 410.481 472.434C411.187 470.908 411.859 469.358 412.323 467.73C412.843 466.122 413.176 464.476 413.444 462.663C414.64 455.587 414.652 448.175 414.007 440.784C413.354 433.383 412.04 425.973 410.339 418.629C408.649 411.279 406.536 403.99 404.184 396.768C399.471 382.32 393.711 368.153 387.343 354.26C385.753 350.784 384.12 347.328 382.451 343.888C380.79 340.443 379.041 337.043 377.421 333.575C374.15 326.655 371.068 319.623 368.637 312.187L368.629 312.163C368.399 311.46 368.782 310.705 369.484 310.475C369.998 310.307 370.542 310.468 370.885 310.842Z" fill="#000072"/>
<path d="M325.871 431.286C324.878 431.286 323.887 430.888 323.16 430.1C321.779 428.603 321.871 426.272 323.366 424.889C324.734 423.623 357.452 393.85 407.544 390.104C409.569 389.94 411.345 391.476 411.497 393.508C411.649 395.54 410.125 397.311 408.093 397.463C360.659 401.01 328.689 430.017 328.372 430.309C327.663 430.963 326.765 431.286 325.871 431.286Z" fill="#000072"/>
<path d="M459.255 465.577C464.512 491.399 494.474 503.214 515.531 487.386C532.013 475.008 550.111 446.695 561.294 384.609C562.358 378.659 563.369 372.39 564.305 365.802L557.187 359.053L509.998 314.285C509.998 314.285 463.512 386.28 458.362 441.469V441.479C457.553 450.026 457.745 458.169 459.255 465.577Z" fill="#B11313"/>
<g opacity="0.300003">
<g opacity="0.300003">
<path opacity="0.300003" d="M459.254 465.577C464.51 491.399 494.472 503.213 515.529 487.386C532.011 475.007 550.11 446.695 561.292 384.609C577.029 375.125 582.434 350.74 582.434 350.74C589.223 318.361 581.391 288.516 581.391 288.516C582.882 327.927 567.245 346.727 560.795 352.762C558.998 354.444 557.742 356.612 557.195 359.012C557.191 359.026 557.188 359.039 557.185 359.053C545.662 410.058 526.361 472.197 498.356 476.646C471.319 480.936 459.668 445.705 458.36 441.479C457.551 450.026 457.743 458.169 459.254 465.577Z" fill="#000072"/>
</g>
</g>
<path d="M508.202 312.187C505.771 319.623 502.689 326.655 499.418 333.575C497.797 337.043 496.049 340.443 494.388 343.888C492.719 347.328 491.085 350.784 489.496 354.26C483.128 368.153 477.368 382.32 472.654 396.768C470.303 403.99 468.19 411.279 466.5 418.629C464.799 425.973 463.485 433.383 462.831 440.784C462.187 448.175 462.199 455.587 463.395 462.663C463.663 464.476 463.995 466.122 464.516 467.73C464.979 469.358 465.652 470.908 466.357 472.434C467.847 475.449 469.817 478.214 472.165 480.615C476.876 485.388 483.149 488.705 489.816 489.691C493.139 490.247 496.54 490.144 499.845 489.595C503.147 488.992 506.341 487.835 509.306 486.213C510.775 485.345 512.181 484.477 513.557 483.355L515.634 481.679C516.337 481.135 516.953 480.467 517.619 479.868C518.264 479.241 518.949 478.664 519.564 478L521.404 476C522.675 474.713 523.752 473.217 524.914 471.811C529.412 466.028 533.239 459.607 536.594 452.917C540.02 446.252 542.714 439.17 545.336 432.077C547.78 424.903 550.036 417.642 551.921 410.257C552.853 406.562 553.852 402.885 554.627 399.143C555.443 395.413 556.31 391.698 557.05 387.944C557.824 384.199 558.845 380.499 559.83 376.776C560.831 373.055 561.991 369.355 563.524 365.687L563.534 365.664C563.706 365.252 564.181 365.057 564.594 365.229C564.882 365.35 565.063 365.619 565.089 365.91C565.752 373.802 565.186 381.583 563.979 389.259C563.435 393.106 562.537 396.896 561.788 400.711C561.06 404.531 560.102 408.31 559.211 412.102C557.407 419.682 555.213 427.187 552.806 434.641C550.211 442.039 547.532 449.439 544.028 456.555C540.58 463.677 536.653 470.662 531.729 477.086C530.455 478.662 529.277 480.304 527.857 481.782L525.8 484.048C525.11 484.801 524.33 485.483 523.598 486.202C522.839 486.899 522.142 487.652 521.33 488.3L518.926 490.273C517.323 491.595 515.465 492.796 513.62 493.887C509.848 496 505.722 497.535 501.45 498.347C497.175 499.105 492.769 499.251 488.479 498.58C479.877 497.36 471.775 493.206 465.643 487.047C462.608 483.937 460.064 480.341 458.154 476.442C457.239 474.476 456.394 472.471 455.798 470.391C455.141 468.328 454.714 466.184 454.422 464.187C453.073 456.052 453.117 447.925 453.825 439.983C455.297 424.074 459.334 408.793 464.347 394.005C469.356 379.199 475.386 364.829 482.008 350.776C483.662 347.262 485.359 343.769 487.091 340.295C488.824 336.821 490.568 333.352 492.48 329.972C496.332 323.226 500.58 316.697 505.953 310.842C506.453 310.297 507.299 310.261 507.843 310.761C508.242 311.127 508.368 311.679 508.211 312.162L508.202 312.187Z" fill="#000072"/>
<path d="M550.969 431.289C550.074 431.289 549.177 430.965 548.468 430.309C548.15 430.017 516.18 401.011 468.746 397.463C466.714 397.311 465.191 395.54 465.342 393.508C465.494 391.476 467.267 389.942 469.295 390.104C519.388 393.85 552.105 423.624 553.474 424.89C554.969 426.273 555.061 428.608 553.678 430.104C552.951 430.89 551.962 431.289 550.969 431.289Z" fill="#000072"/>
<path d="M438.473 278.642C534.94 278.642 573.243 236.486 573.243 236.486C573.243 236.486 574.851 240.116 575.633 245.275C576.928 253.817 573.302 262.386 566.397 267.575C551.218 278.982 512.568 300.719 438.423 300.719C364.278 300.719 325.628 278.982 310.449 267.575C303.544 262.386 299.917 253.817 301.213 245.275C301.995 240.116 303.602 236.486 303.602 236.486C303.602 236.486 341.905 278.642 438.373 278.642" fill="#751313"/>
<g opacity="0.300003">
<g opacity="0.300003">
<path opacity="0.300003" d="M575.284 243.297C574.043 248.655 570.935 253.523 566.401 256.931C551.222 268.338 512.571 290.074 438.427 290.074C364.282 290.074 325.631 268.338 310.453 256.931C305.918 253.523 302.81 248.655 301.569 243.297C301.441 243.926 301.321 244.585 301.217 245.274C299.921 253.816 303.547 262.385 310.453 267.575C325.631 278.982 364.282 300.718 438.427 300.718C512.571 300.718 551.222 278.982 566.401 267.575C573.306 262.385 576.932 253.816 575.637 245.274C575.532 244.585 575.412 243.926 575.284 243.297Z" fill="#000072"/>
</g>
</g>
<path d="M438.418 304.409C364.373 304.409 325.068 283.18 308.229 270.525C300.156 264.457 296.068 254.57 297.562 244.722C298.408 239.138 300.151 235.158 300.225 234.992C300.73 233.851 301.777 233.042 303.008 232.844C304.238 232.642 305.488 233.081 306.327 234.004C306.697 234.408 344.935 274.952 438.369 274.952V282.332C358.568 282.332 318.088 254.173 305.352 243.207C305.169 244.016 304.997 244.895 304.855 245.828C303.769 252.988 306.76 260.191 312.66 264.626C328.763 276.727 366.515 297.029 438.418 297.029C510.322 297.029 548.074 276.727 564.177 264.626C570.077 260.191 573.067 252.989 571.982 245.828C571.84 244.895 571.668 244.016 571.484 243.207C558.748 254.173 518.269 282.332 438.468 282.332V274.952C532.219 274.952 570.137 234.413 570.51 234.004C571.349 233.081 572.598 232.644 573.828 232.844C575.059 233.042 576.106 233.851 576.612 234.992C576.686 235.158 578.429 239.138 579.275 244.722C580.769 254.57 576.681 264.458 568.608 270.525C551.769 283.18 512.464 304.409 438.418 304.409Z" fill="#000072"/>
<g opacity="0.3">
<path d="M146.813 0.263365C146.813 0.263365 148.881 9.15399 142.025 19.0803C142.025 19.0803 153.226 18.7382 158.613 26.0938C158.613 26.0938 156.817 15.4024 164.512 7.27705C164.512 7.27705 153.995 9.15868 146.813 0.263365Z" fill="white"/>
</g>
<path d="M303.68 267.684L363.159 403.131" stroke="#000072" stroke-width="3" stroke-miterlimit="10"/>
<path d="M511.098 403.13L571.839 267.684" stroke="#000072" stroke-width="3" stroke-miterlimit="10"/>
<path fill-rule="evenodd" clip-rule="evenodd" d="M434.05 322.996C434.025 323.322 433.828 323.615 433.696 323.936C433.568 324.246 433.451 324.579 433.341 324.905C433.054 325.755 432.785 326.593 432.809 327.694C433.79 327.823 435.027 327.727 435.912 327.603C436.395 327.818 436.706 328.151 437.152 328.391C437.068 327.98 437.471 327.902 437.817 327.785C437.664 327.963 437.425 328.082 437.507 328.421C437.709 328.513 437.741 328.269 437.906 328.239C438.134 328.417 438.423 328.407 438.659 328.239C438.829 328.265 438.783 328.438 438.97 328.452C439.233 328.216 438.857 327.96 438.748 327.785C439.077 327.903 439.451 327.991 439.413 328.361C439.771 328.211 440.207 327.853 440.565 327.603C441.488 327.736 442.668 327.798 443.756 327.724C443.719 325.88 443.065 324.459 442.426 323.026C442.603 323.011 442.602 323.17 442.648 323.238C443.307 324.214 443.894 325.328 444.376 326.512C444.446 326.684 444.564 326.918 444.642 327.148C444.71 327.35 444.854 327.702 444.819 327.815C444.743 328.064 444.143 328.147 444.022 328.361C443.653 328.063 442.59 328.148 441.584 328.118C441.299 328.109 440.917 328.054 440.742 328.088C440.356 328.163 440.187 328.549 439.989 328.755C440.535 328.78 440.966 328.418 441.451 328.391C441.759 328.373 442.209 328.532 442.603 328.603C443.746 328.81 445.021 328.985 446.061 329.209C446.123 326.772 445.208 324.741 443.978 323.087C445.2 324.241 446.023 325.591 446.637 327.179C446.743 327.453 446.833 327.715 446.903 327.997C447 328.394 447.003 328.884 447.301 329.179C446.934 329.453 446.492 329.676 446.105 329.937C445.016 329.493 442.912 328.852 441.141 328.967C440.717 328.994 440.342 329.139 440.033 329.331C440.574 329.478 440.949 329.492 441.673 329.482C441.853 329.479 442.113 329.428 442.249 329.452C442.403 329.478 442.65 329.696 442.869 329.846C444.149 330.721 445.294 331.362 446.814 332.058C447.288 332.276 447.556 332.497 448.099 332.21C448.189 335.086 447.072 337.209 445.706 339.15C445.547 339.376 445.446 339.639 445.174 339.817C446.201 338.16 446.991 336.187 446.991 333.877C446.991 333.634 447.059 333.333 446.991 333.119C446.895 332.816 446.198 332.495 445.794 332.24C444.649 331.517 443.738 331.01 442.471 330.331C442.222 330.198 442.011 330.018 441.806 329.967C441.59 329.913 441.249 329.902 441.008 329.876C440.706 329.843 440.416 329.835 440.166 329.815C440.656 330.175 441.433 330.622 442.116 330.967C442.241 331.044 442.371 330.94 442.515 330.937C442.677 334.315 442.311 337.624 440.92 340.09C440.587 340.679 440.22 341.256 439.634 341.696C441.524 339.363 441.666 335.357 441.274 331.846C441.676 331.608 441.501 331.41 441.141 331.119C440.747 330.8 440.048 330.335 439.59 330.179C439.558 330.337 439.637 330.492 439.723 330.634C439.809 330.776 440.001 330.9 440.033 331.028C440.1 331.299 439.939 331.894 439.856 332.21C439.582 333.255 439.004 334.403 438.482 335.18C438.298 335.164 438.427 334.935 438.305 334.877C438.108 334.884 438.227 335.107 438.127 335.18C437.517 334.468 436.996 333.29 436.709 332.21C436.607 331.824 436.447 331.359 436.532 331.028C436.599 330.764 437.014 330.525 436.975 330.209C436.57 330.273 436.191 330.549 435.867 330.785C435.544 331.021 435.209 331.274 434.981 331.543C435.008 331.676 435.197 331.698 435.247 331.816C434.956 335.369 434.966 339.367 436.931 341.666C436.724 341.647 436.627 341.467 436.532 341.363C434.702 339.362 434.211 336.276 434.006 333.089C433.961 332.384 433.914 331.695 434.05 330.998C434.088 330.851 434.316 331.068 434.449 330.967C435.148 330.607 435.779 330.199 436.443 329.815C435.865 329.876 435.235 329.857 434.715 329.997C434.263 330.119 433.769 330.456 433.341 330.694C432.04 331.419 430.67 332.206 429.574 333.028C429.35 335.733 430.256 337.912 431.347 339.817C429.773 337.72 428.314 335.387 428.466 332.21C429.066 332.599 429.978 331.966 430.46 331.725C431.802 331.054 433.235 330.188 434.272 329.452C435.022 329.527 435.904 329.466 436.532 329.361C435.749 328.678 433.742 329.021 432.543 329.27C431.739 329.437 430.989 329.677 430.505 329.937C430.045 329.726 429.693 329.441 429.264 329.209C429.578 328.67 429.645 327.764 429.884 327.148C430.47 325.644 431.384 324.311 432.499 323.087C432.469 323.32 432.234 323.52 432.1 323.723C431.129 325.201 430.49 327.032 430.46 329.179C431.485 329.02 432.707 328.824 433.917 328.603C434.312 328.531 434.72 328.383 435.025 328.391C435.518 328.403 435.981 328.751 436.532 328.755C436.401 328.47 436.151 328.267 435.867 328.088C434.954 328.159 433.935 328.047 433.12 328.148C433.036 328.159 432.927 328.192 432.809 328.239C432.82 328.235 432.546 328.36 432.588 328.361C432.403 328.359 431.953 327.922 431.746 327.876C432.172 326.015 433.133 324.521 434.05 322.996Z" fill="#000072"/>
<path fill-rule="evenodd" clip-rule="evenodd" d="M438.424 304.409V356.742Z" fill="#000072"/>
<path d="M438.424 304.409V356.742" stroke="#000072" stroke-width="3" stroke-miterlimit="10"/>
<path d="M422.098 304.052C422.098 304.052 424.973 346.922 420.762 354.513" stroke="#000072" stroke-width="3" stroke-miterlimit="10"/>
<path d="M409.173 303.23C409.173 303.23 415.658 323.065 406.287 349.858" stroke="#000072" stroke-width="3" stroke-miterlimit="10"/>
<path d="M453.333 304.409C453.333 304.409 450.326 342.395 454.675 355.328" stroke="#000072" stroke-width="3" stroke-miterlimit="10"/>
<path d="M468.67 303.23C468.67 303.23 461.796 340.897 472.005 349.858" stroke="#000072" stroke-width="3" stroke-miterlimit="10"/>
<path d="M395.734 310.761C395.734 310.761 402.21 304.579 410.714 310.761C410.714 310.761 415.147 304.625 422.518 311.605C422.518 311.605 426.538 303.963 438.371 310.761C438.371 310.761 443.365 304.374 452.325 310.761C452.325 310.761 459.364 303.669 467.609 310.409C467.609 310.409 474.961 302.404 481.325 309.554" stroke="#000072" stroke-width="3" stroke-miterlimit="10"/>
<path d="M437.482 320.583C437.251 320.418 437.021 320.263 436.793 320.117C428.733 314.95 422.885 320.726 422.885 320.726C416.907 314.518 411.362 320.726 411.362 320.726C402.069 309.879 397.051 320.726 397.051 320.726" stroke="#000072" stroke-width="3" stroke-miterlimit="10"/>
<path d="M437.25 320.698C437.25 320.698 444.597 314.806 452.325 320.698C452.325 320.698 459.835 313.405 466.408 321.024C466.408 321.024 476.167 313.512 479.807 320.873" stroke="#000072" stroke-width="3" stroke-miterlimit="10"/>
<path d="M397.051 338.839C397.051 338.839 403.014 329.012 409.289 339.673C409.289 339.673 420.544 331.896 422.939 342.757C422.939 342.757 432.258 338.018 438.771 345.818C438.771 345.818 445.672 337.744 453.665 343.902C453.665 343.902 459.002 331.553 468.036 341.081C468.036 341.081 473.602 330.783 479.808 336.659" stroke="#000072" stroke-width="3" stroke-miterlimit="10"/>
<path d="M396.441 344.715C396.441 344.715 404.207 336.836 407.602 345.818C407.602 345.818 418.787 340.76 421.91 349.858C421.91 349.858 433.468 343.794 438.279 353.496C438.279 353.496 445.118 347.05 453.338 351.429C453.338 351.429 460.894 340.06 469.64 346.771C469.64 346.771 475.862 336.138 479.586 342.757" stroke="#000072" stroke-width="3" stroke-miterlimit="10"/>
<path d="M328.371 430.309C328.371 430.309 362.788 394.117 406.29 397.611L416.179 427.996C416.179 427.996 405.49 473.108 338.104 457.908L328.371 430.309Z" fill="#000072"/>
<path d="M328.371 430.309C328.371 430.309 362.788 394.117 406.29 397.611L416.179 427.996C416.179 427.996 405.49 473.108 338.104 457.908L328.371 430.309Z" stroke="#000072" stroke-width="3" stroke-miterlimit="10"/>
<path d="M459.074 435.463L469.208 392.357L516.964 406.882L545.419 423.042V435.463L538.737 457.907C538.737 457.907 490.927 473.652 459.074 435.463Z" fill="#000072"/>
<path d="M459.074 435.463L469.208 392.357L516.964 406.882L545.419 423.042V435.463L538.737 457.907C538.737 457.907 490.927 473.652 459.074 435.463Z" stroke="#000072" stroke-width="3" stroke-miterlimit="10"/>
<path d="M217.396 378.053L254.161 473.413" stroke="#000072" stroke-width="3" stroke-miterlimit="10"/>
<path d="M207.859 390.092C207.859 390.092 214.212 434.233 241.943 472.694" stroke="#000072" stroke-width="3" stroke-miterlimit="10"/>
<path d="M232.324 374.384C232.324 374.384 261.039 423.151 265.476 474.184" stroke="#000072" stroke-width="3" stroke-miterlimit="10"/>
<path d="M250.748 378.053C250.748 378.053 268.164 412.783 277.982 473.413" stroke="#000072" stroke-width="3" stroke-miterlimit="10"/>
<path d="M203.957 410.689C203.957 410.689 204.03 400.922 210.97 404.709C210.97 404.709 213.553 387.629 224.897 398.473C224.897 398.473 225.327 381.133 241.181 391.53C241.181 391.53 245.704 378.804 255.2 390.092C255.2 390.092 259.91 387.488 262.941 393.36" stroke="#000072" stroke-width="3" stroke-miterlimit="10"/>
<path d="M208.959 396.061C208.959 396.061 211.393 383.429 221.083 387.615C221.083 387.615 223.001 377.231 235.779 380.684C235.779 380.684 237.659 373.894 252.821 382.573" stroke="#000072" stroke-width="3" stroke-miterlimit="10"/>
<path d="M205.309 415.886C205.309 415.886 205.844 406.098 213.245 412.908C213.245 412.908 215.578 395.962 228.509 406.882C228.509 406.882 228.856 390.289 243.904 399.666C243.904 399.666 249.44 390.401 259.09 398.473C259.09 398.473 260.813 393.651 265.628 398.473" stroke="#000072" stroke-width="3" stroke-miterlimit="10"/>
<path d="M205.309 424.284C205.309 424.284 208.313 414.872 216.532 423.042C216.532 423.042 221.562 407.675 232.323 418.075C232.323 418.075 236.658 397.562 249.857 411.65C249.857 411.65 251.91 398.256 262.408 408.166C262.408 408.166 263.204 399.941 268.739 406.545" stroke="#000072" stroke-width="3" stroke-miterlimit="10"/>
<path d="M207.859 431.393C207.859 431.393 210.655 423.641 218.799 429.206C218.799 429.206 227.654 416.969 235.78 425.733C235.78 425.733 244.501 412.562 252.822 422.571C252.822 422.571 257.15 410.213 265.708 418.817C265.708 418.817 268.879 414.209 271.441 418.195" stroke="#000072" stroke-width="3" stroke-miterlimit="10"/>
<path d="M210.803 440.518C210.803 440.518 215.725 432.073 222.019 437.117C222.019 437.117 227.534 427.492 239.552 435.51C239.552 435.51 245.271 422.48 257.039 432.32C257.039 432.32 261.294 421.233 268.744 431.286C268.744 431.286 268.772 420.527 273.988 425.733" stroke="#000072" stroke-width="3" stroke-miterlimit="10"/>
<path d="M214.42 451.165V448.456C214.42 448.456 217.718 438.577 225.614 445.022C225.614 445.022 233.767 435.674 242.394 442.886C242.394 442.886 251.309 431.213 259.373 440.518C259.373 440.518 264.229 430.316 271.442 440.481" stroke="#000072" stroke-width="3" stroke-miterlimit="10"/>
<path d="M220.564 454.478C220.564 454.478 220.87 449.222 228.693 451.165C228.693 451.165 237.078 444.81 245.415 450.734C245.415 450.734 251.297 440.298 261.28 448.209C261.28 448.209 268.192 440.075 272.922 446.963" stroke="#000072" stroke-width="3" stroke-miterlimit="10"/>
<path d="M224.902 461.037C224.902 461.037 227.924 456.439 233.454 459.7C233.454 459.7 240.633 452.733 248.427 458.531C248.427 458.531 253.848 450.312 262.969 456.226C262.969 456.226 268.752 448.731 274.524 454.478" stroke="#000072" stroke-width="3" stroke-miterlimit="10"/>
<path d="M230.895 465.698C230.895 465.698 231.843 460.83 237.03 465.485C237.03 465.485 243.089 461.593 250.75 465.698C250.75 465.698 259.106 460.459 264.367 464.584C264.367 464.584 271.208 459.443 275.753 464.35" stroke="#000072" stroke-width="3" stroke-miterlimit="10"/>
<path d="M239.65 469.1C239.65 469.1 243.68 464.868 252.822 469.936C252.822 469.936 257.84 466.872 262.436 467.952C263.092 468.106 263.74 468.345 264.364 468.69" stroke="#000072" stroke-width="3" stroke-miterlimit="10"/>
<path d="M265.051 469.965C265.051 469.965 269.699 465.909 277.596 468.702" stroke="#000072" stroke-width="3" stroke-miterlimit="10"/>
<path d="M273.989 424.31C272.602 427.463 277.984 477.085 277.984 477.085H345.116L343.687 473.412L328.375 444.194L318.791 416.747C297.072 413.667 275.754 362.787 275.754 362.787L260.637 378.868L264.367 387.614L271.445 403.978L273.989 424.31Z" fill="#000072"/>
<path d="M656.676 375.745L623.814 473.413" stroke="#000072" stroke-width="3" stroke-miterlimit="10"/>
<path d="M665.404 387.668C665.404 387.668 659.563 449.992 632.137 474.909" stroke="#000072" stroke-width="3" stroke-miterlimit="10"/>
<path d="M644.019 375.151C644.019 375.151 621.764 428.623 611.195 474.007" stroke="#000072" stroke-width="3" stroke-miterlimit="10"/>
<path d="M625.521 379.839C625.521 379.839 609.323 410.224 600.92 479.658" stroke="#000072" stroke-width="3" stroke-miterlimit="10"/>
<path d="M670.87 404.134C670.87 404.134 669.099 395.494 663.482 401.31C663.482 401.31 661.137 385.867 650.062 395.402C650.062 395.402 646.936 382.24 637.216 392.357C637.216 392.357 629.65 379.777 620.228 392.357C620.228 392.357 618.281 389.171 613.723 393.359" stroke="#000072" stroke-width="3" stroke-miterlimit="10"/>
<path d="M671.438 412.877C671.438 412.877 669.358 404.4 661.697 410.69C661.697 410.69 657.244 400.068 646.201 406.882C646.201 406.882 643.611 396.123 632.134 403.131C632.134 403.131 628.743 394.94 617.313 400.76C617.313 400.76 614.638 395.58 609.85 401.217" stroke="#000072" stroke-width="3" stroke-miterlimit="10"/>
<path d="M671.441 423.042C671.441 423.042 667.066 413.914 659.593 419.826C659.593 419.826 652.608 409.929 642.513 417.834C642.513 417.834 638.696 408.184 628.991 414.772C628.991 414.772 624.025 404.132 613.721 411.651C613.721 411.651 611.833 406.042 604.342 410.69" stroke="#000072" stroke-width="3" stroke-miterlimit="10"/>
<path d="M669.633 431.289C669.633 431.289 667.054 422.263 656.852 429.749C656.852 429.749 649.9 418.163 639.52 426.74C639.52 426.74 635.032 414.935 625.519 424.579C625.519 424.579 622.519 414.975 611.192 422.273C611.192 422.273 609.534 414.758 604.699 421.207C599.864 427.655 603.421 421.086 603.421 421.086" stroke="#000072" stroke-width="3" stroke-miterlimit="10"/>
<path d="M666.894 440.244C666.894 440.244 663.203 430.167 654.104 438.079C654.104 438.079 648.411 429.851 636.722 435.048C636.722 435.048 629.656 426.559 621.462 435.044C621.462 435.044 615.882 426.415 608.556 433.603C608.556 433.603 605.702 419.443 598.814 433.128" stroke="#000072" stroke-width="3" stroke-miterlimit="10"/>
<path d="M661.311 447.232C661.311 447.232 661.086 438.027 651.27 445.431C651.27 445.431 644.801 436.4 633.415 444.891C633.415 444.891 627.258 435.599 618.932 445.419C618.932 445.419 613.259 436.413 606.223 445.131C606.223 445.131 606.001 430.118 596.504 441.887" stroke="#000072" stroke-width="3" stroke-miterlimit="10"/>
<path d="M656.679 455.024C656.679 455.024 655.218 450.002 647.377 453.882C647.377 453.882 638.861 447.484 630.444 453.718C630.444 453.718 625.585 446.884 616.692 453.007C616.692 453.007 609.374 446.626 604.346 452.741C604.346 452.741 604.79 441.325 594.119 450.091" stroke="#000072" stroke-width="3" stroke-miterlimit="10"/>
<path d="M651.029 461.123C651.029 461.123 649.826 455.453 643.314 461.123C643.314 461.123 635.918 456.151 627.605 462.157C627.605 462.157 619.422 456.972 614.158 462.157C614.158 462.157 608.518 454.508 602.55 462.157C602.55 462.157 600.724 452.05 594.959 460.38" stroke="#000072" stroke-width="3" stroke-miterlimit="10"/>
<path d="M646.053 464.04C646.053 464.04 643.353 461.568 640.644 465.147C640.644 465.147 629.834 461.969 625.519 468.35C625.519 468.35 620.875 463.288 612.558 468.35C612.558 468.35 608.494 460.875 602.401 468.35C602.401 468.35 599.043 458.412 592.75 468.35" stroke="#000072" stroke-width="3" stroke-miterlimit="10"/>
<path d="M560.27 415.945L581.846 395.144L598.817 366.349L600.918 359.958L615.162 375.746L616.28 383.589L608.558 392.357L604.345 403.131L602.548 415.945V422.827L602.402 427.42C602.402 427.42 595.034 462.164 598.817 475.837L533.104 477.468L530.961 473.413L541.694 452.558L553.475 424.89L560.27 415.945Z" fill="#000072"/>
<path d="M548.213 281.068C548.213 281.068 495.624 383.151 489.719 411.651" stroke="#000072" stroke-width="3" stroke-miterlimit="10"/>
<path d="M531.434 288.906C531.434 288.906 480.027 391.837 484.574 400.546" stroke="#000072" stroke-width="3" stroke-miterlimit="10"/>
<path d="M580.515 283.283C580.515 283.283 541.432 389.771 523.254 414.654" stroke="#000072" stroke-width="3" stroke-miterlimit="10"/>
<path d="M509.994 304.409C509.994 304.409 521.887 291.818 524.827 302.328C524.827 302.328 532.813 290.566 539.319 298.623C539.319 298.623 554.815 286.141 557.296 300.105C557.296 300.105 571.385 289.001 572.558 304.409C572.558 304.409 577.674 302.961 577.55 315.905C577.55 315.905 582.145 325.962 580.812 329.869" stroke="#000072" stroke-width="3" stroke-miterlimit="10"/>
<path d="M529.586 292.624C529.586 292.624 538.899 284.211 544.214 288.906C544.214 288.906 556.745 276.201 563.278 286.77C563.278 286.77 575.669 284.58 575.889 295.659C575.889 295.659 580.906 301.956 580.515 304.409C580.515 304.409 574.772 343.01 563.787 365.949C563.787 365.949 549.223 415.936 534.392 419.937" stroke="#000072" stroke-width="3" stroke-miterlimit="10"/>
<path d="M508.213 312.162C508.213 312.162 515.659 302.865 520.074 312.162C520.074 312.162 530.992 301.633 531.434 312.162C531.434 312.162 548.668 303.826 550.943 314.285C550.943 314.285 563.668 305.212 566.24 320.725C566.24 320.725 578.473 316.148 574.593 331.933C574.593 331.933 581.38 330.157 580.1 340.084" stroke="#000072" stroke-width="3" stroke-miterlimit="10"/>
<path d="M501.506 323.783C501.506 323.783 512.325 313.672 513.687 325.571C513.687 325.571 524.164 315.367 524.737 328.266C524.737 328.266 543.455 318.653 543.028 331.933C543.028 331.933 556.104 327.765 558.451 340.263C558.451 340.263 569.745 336.495 570.921 347.041C570.921 347.041 579.252 346.522 578.471 353.255" stroke="#000072" stroke-width="3" stroke-miterlimit="10"/>
<path d="M495.758 336.659C495.758 336.659 504.095 322.735 509.162 336.577C509.162 336.577 515.905 330.491 518.966 339.113C518.966 339.113 535.365 333.639 536.801 345.818C536.801 345.818 547.898 338.844 553.43 349.858C553.43 349.858 566.3 347.732 568.171 355.329C568.171 355.329 574.041 353.501 576.146 359.958" stroke="#000072" stroke-width="3" stroke-miterlimit="10"/>
<path d="M492.473 344.726C492.473 344.726 500.187 340.691 502.487 349.858C502.487 349.858 510.476 342.865 513.685 351.253C513.685 351.253 526.766 346.248 530.961 356.741C530.961 356.741 545.132 351.365 549.739 361.263C549.739 361.263 559.35 358.708 564.593 365.23C564.593 365.23 570.968 362.835 571.838 369.346" stroke="#000072" stroke-width="3" stroke-miterlimit="10"/>
<path d="M486.945 355.494C486.945 355.494 497.64 347.545 497.622 360.88C497.622 360.88 506.913 354.303 508.21 362.514C508.21 362.514 522.673 358.319 526.247 369.346C526.247 369.346 538.29 360.568 544.233 373.966C544.233 373.966 556.623 367.331 559.433 378.265" stroke="#000072" stroke-width="3" stroke-miterlimit="10"/>
<path d="M483 368.261C483 368.261 491.265 359.345 494.024 369.345C494.024 369.345 501.634 362.904 504.442 372.049C504.442 372.049 517.753 368.356 522.248 378.265C522.248 378.265 534.197 373.136 540.012 383.323C540.012 383.323 550.342 376.737 555.677 386.766" stroke="#000072" stroke-width="3" stroke-miterlimit="10"/>
<path d="M479.283 376.678C479.283 376.678 487.754 371.436 490.42 378.265C490.42 378.265 497.839 373.137 500.695 380.758C500.695 380.758 515.248 377.764 517.505 386.766C517.505 386.766 530.788 382.966 535.945 391.933C535.945 391.933 546.038 388.358 551.881 395.45C551.881 395.45 554.246 394.033 554.241 400.546" stroke="#000072" stroke-width="3" stroke-miterlimit="10"/>
<path d="M476.057 384.605C476.057 384.605 485.109 379.962 486.944 385.915C486.944 385.915 496.657 382.022 497.44 388.683C497.44 388.683 513.911 384.953 514.888 394.672C514.888 394.672 529.472 390.303 531.626 400.545C531.626 400.545 544.27 395.342 547.063 406.881C547.063 406.881 551.996 404.543 553.425 411.651" stroke="#000072" stroke-width="3" stroke-miterlimit="10"/>
<path d="M320.299 273.636C320.299 273.636 367.177 350.72 378.132 400.546" stroke="#000072" stroke-width="3" stroke-miterlimit="10"/>
<path d="M347.188 288.517C347.188 288.517 382.209 352.696 393.837 395.17" stroke="#000072" stroke-width="3" stroke-miterlimit="10"/>
<path d="M297.744 285.868C297.744 285.868 338.57 401.66 351.939 410.689" stroke="#000072" stroke-width="3" stroke-miterlimit="10"/>
<path d="M296.113 307.482C296.113 307.482 329.133 410.666 338.983 415.944" stroke="#000072" stroke-width="3" stroke-miterlimit="10"/>
<path d="M300.695 290.531C300.695 290.531 301.606 278.419 311.471 285.433C311.471 285.433 315.401 276.756 326.576 284.328C326.576 284.328 329.543 279.682 338.982 283.464" stroke="#000072" stroke-width="3" stroke-miterlimit="10"/>
<path d="M298.326 314.285C298.326 314.285 299.21 305.762 306.171 309.094C306.171 309.094 308.326 297.284 320.305 305.54C320.305 305.54 322.528 293.116 335.751 300.719C335.751 300.719 344.061 289.832 353.631 300.719C353.631 300.719 360.634 294.211 365.748 300.719" stroke="#000072" stroke-width="3" stroke-miterlimit="10"/>
<path d="M296.113 304.052C296.113 304.052 299.184 298.864 302.872 300.719C302.872 300.719 306.849 289.439 315.437 294.464C315.437 294.464 320.879 286.287 330.699 291.591C330.699 291.591 340.924 286.883 347.191 289.802" stroke="#000072" stroke-width="3" stroke-miterlimit="10"/>
<path d="M294.994 330.446C294.994 330.446 296.175 324.71 302.873 328.011C302.873 328.011 303.796 319.34 311.471 323.821C311.471 323.821 313.44 311.917 327.101 319.288C327.101 319.288 328.48 305.398 342.978 314.285C342.978 314.285 349.354 303.634 359.011 311.315C359.011 311.315 360.088 305.249 367.488 310.408" stroke="#000072" stroke-width="3" stroke-miterlimit="10"/>
<path d="M296.113 343.841C296.113 343.841 299.169 334.35 306.969 340.084C306.969 340.084 308.582 329.962 316.6 336.659C316.6 336.659 322.541 327.354 331.24 331.933C331.24 331.933 339.068 319.312 349.217 326.544C349.217 326.544 356.586 316.822 364.542 322.562C364.542 322.562 364.826 318.854 372.356 320.725" stroke="#000072" stroke-width="3" stroke-miterlimit="10"/>
<path d="M298.373 353.255C298.373 353.255 300.473 343.496 310.357 349.857C310.357 349.857 314.948 343.182 320.928 347.677C320.928 347.677 326.072 336.389 336.701 342.882C336.701 342.882 343.835 332.603 355.295 339.074C355.295 339.074 360.532 330.49 370.62 335.407C370.62 335.407 369.764 330.363 377.425 333.575" stroke="#000072" stroke-width="3" stroke-miterlimit="10"/>
<path d="M302.254 362.788C302.254 362.788 304.555 354.224 312.534 358.522C312.534 358.522 317.288 349.56 324.509 356.317C324.509 356.317 327.692 344.923 341.202 352.712C341.202 352.712 347.649 342.767 359.526 347.631C359.526 347.631 364.241 338.227 374.873 343.979C374.873 343.979 377.083 339.311 382.451 343.044" stroke="#000072" stroke-width="3" stroke-miterlimit="10"/>
<path d="M302.873 371.29C302.873 371.29 306.111 360.324 314.955 362.788C314.955 362.788 322.901 358.509 326.907 362.427C326.907 362.427 338.331 353.842 344.198 359.957C344.198 359.957 356.003 350.624 363.157 356.569C363.157 356.569 371.218 349.797 379.109 354.513C379.109 354.513 383.433 349.744 388.774 353.255" stroke="#000072" stroke-width="3" stroke-miterlimit="10"/>
<path d="M393.842 366.349C393.842 366.349 385.62 355.483 383.712 365.704C383.712 365.704 369.676 357.293 368.352 369.346C368.352 369.346 354.565 358.989 349.716 372.521C349.716 372.521 335.618 364.768 332.034 375.684C332.034 375.684 323.043 366.277 321.654 378.266C321.654 378.266 316.959 376.473 316.139 381.125" stroke="#000072" stroke-width="3" stroke-miterlimit="10"/>
<path d="M397.551 375.684C397.551 375.684 389.949 367.287 387.926 376.807C387.926 376.807 376.752 369.454 372.026 379.395C372.026 379.395 359.975 373.305 355.292 384.605C355.292 384.605 342.401 377.417 338.981 389.808C338.981 389.808 330.128 386.224 327.099 395.17C327.099 395.17 322.547 393.964 320.299 400.545" stroke="#000072" stroke-width="3" stroke-miterlimit="10"/>
<path d="M399.319 382.881C399.319 382.881 393.582 372.512 390.902 385.422C390.902 385.422 383.782 380.994 375.446 390.092C375.446 390.092 364.783 386.439 358.929 393.499C358.929 393.499 350.484 391.175 344.356 397.373C344.019 397.713 343.69 398.079 343.369 398.473" stroke="#000072" stroke-width="3" stroke-miterlimit="10"/>
<path d="M343.688 398.079C343.688 398.079 335.812 397.363 331.72 404.708C331.72 404.708 326.037 404.951 323.413 411.65C320.789 418.349 322.182 410.69 322.182 410.69" stroke="#000072" stroke-width="3" stroke-miterlimit="10"/>
<path opacity="0.3" d="M22.1996 178.004C22.1996 178.004 31.386 217.586 0.928223 261.779C0.928223 261.779 50.6881 260.256 74.6188 293.004C74.6188 293.004 66.6416 245.405 100.828 209.23C100.828 209.23 54.1066 217.607 22.1996 178.004Z" fill="#E11D2E"/>
<path opacity="0.23" d="M826.106 266.419C826.106 266.419 790.062 300.158 725.073 294.922C725.073 294.922 756.919 346.433 737.024 391.555C737.024 391.555 782.234 354.218 841.057 368.256C841.057 368.256 803.85 324.113 826.106 266.419Z" fill="#0096F2"/>
<path opacity="0.23" d="M625.568 33.0039C625.568 33.0039 631.723 59.1626 611.316 88.3684C611.316 88.3684 644.655 87.3618 660.689 109.004C660.689 109.004 655.344 77.547 678.249 53.6401C678.249 53.6401 646.945 59.1763 625.568 33.0039Z" fill="#FF850B"/>
<path d="M140.805 357.573C140.805 357.573 143.743 370.209 134 384.316C134 384.316 149.918 383.83 157.574 394.284C157.574 394.284 155.022 379.089 165.958 367.541C165.958 367.541 151.012 370.215 140.805 357.573" fill="white"/>
<path d="M139.813 60.5602C139.813 60.5602 141.881 69.4509 135.025 79.3772C135.025 79.3772 146.226 79.0351 151.613 86.3906C151.613 86.3906 149.817 75.6993 157.512 67.5739C157.512 67.5739 146.995 69.4556 139.813 60.5602Z" fill="white"/>
</svg>
