<svg width="119" height="120" viewBox="0 0 119 120" fill="none" xmlns="http://www.w3.org/2000/svg">
<rect opacity="0.1" width="118.558" height="120" rx="20" fill="#EA0B1E"/>
<rect x="24.6995" y="25" width="69.1587" height="70" rx="10" fill="#E11D2E"/>
<path d="M75.1145 43H65.3738C64.2979 43 63.4257 43.8828 63.4257 44.9718V54.831C63.4257 55.92 64.2979 56.8028 65.3738 56.8028H75.1145C76.1904 56.8028 77.0626 55.92 77.0626 54.831V44.9718C77.0626 43.8828 76.1904 43 75.1145 43Z" fill="white"/>
<path d="M54.172 64.1968H44.4313C43.3554 64.1968 42.4832 65.0796 42.4832 66.1686V76.0278C42.4832 77.1168 43.3554 77.9996 44.4313 77.9996H54.172C55.2479 77.9996 56.1201 77.1168 56.1201 76.0278V66.1686C56.1201 65.0796 55.2479 64.1968 54.172 64.1968Z" fill="white"/>
<path d="M49.3016 56.8028C50.197 56.8028 51.0837 56.6243 51.9109 56.2775C52.7382 55.9307 53.4899 55.4223 54.123 54.7815C54.7562 54.1406 55.2584 53.3798 55.6011 52.5425C55.9437 51.7052 56.1201 50.8077 56.1201 49.9014C56.1201 48.9951 55.9437 48.0977 55.6011 47.2604C55.2584 46.423 54.7562 45.6622 54.123 45.0214C53.4899 44.3805 52.7382 43.8722 51.9109 43.5253C51.0837 43.1785 50.197 43 49.3016 43C47.4933 43 45.759 43.7271 44.4802 45.0214C43.2015 46.3156 42.4832 48.0711 42.4832 49.9014C42.4832 51.7318 43.2015 53.4872 44.4802 54.7815C45.759 56.0757 47.4933 56.8028 49.3016 56.8028Z" fill="white"/>
<path d="M77.0626 76.0283L70.2441 64.1973L63.4257 76.0283C63.4257 77.1173 64.2979 78.0001 65.3738 78.0001H75.1145C76.1904 78.0001 77.0626 77.1173 77.0626 76.0283Z" fill="white"/>
</svg>
